<svg fill="none" height="201" viewBox="0 0 400 201" width="400" xmlns="http://www.w3.org/2000/svg"><path d="m0 .244141h400v200h-400z" fill="#f2f4f7"/><path d="m250.435 145.188h32.832v-9.997l14.732 16.837-13.943 16.048v-9.471h-51.511c4.21-1.578 8.156-3.946 11.839-7.103 3.332-3.157 5.349-5.261 6.051-6.314z" fill="#7c80df"/><g fill="#595dd5"><path d="m156.78 129.665 7.629-3.946c-4.735-10.698-5.174-23.063-1.315-37.0937 3.507-10.3478 9.646-18.2401 18.415-23.677 8.769-5.6124 18.24-8.4185 28.412-8.4185 5.087 0 10.26.9646 15.522 2.8938 5.437 1.9293 10.698 4.8231 15.785 8.6816 5.086 3.8585 9.207 9.2954 12.364 16.3108 3.157 6.84 4.648 14.6447 4.473 23.414 0 7.191-1.228 13.768-3.683 19.731-2.28 5.787-5.174 10.523-8.682 14.206-3.332 3.508-7.191 6.577-11.575 9.208-4.21 2.455-8.068 4.121-11.576 4.998s-6.664 1.316-9.471 1.316c-7.892.35-24.483.35-63.244 0v-12.628h60.35c8.244 0 16.048-3.42 23.414-10.26 7.367-6.84 11.05-15.785 11.05-26.834 0-11.0494-3.683-19.9941-11.05-26.8341-7.19-7.0154-14.995-10.5231-23.414-10.5231-7.716 0-14.644 2.1046-20.783 6.3139-5.963 4.0338-10.26 9.7339-12.89 17.1-3.508 10.1723-3.42 19.0293.263 26.5713l7.366-3.157-6.051 21.572z"/><path d="m126.264 144.083h16.837v13.4696h-16.837z"/><path d="m102.692 144.083h16.837v13.47h-16.837l6.314-6.735z"/></g><path d="m181.679 37.1214-3.494 3.9696c-5.685-4.4229-13.006-6.5272-21.963-6.3128-6.704.5536-12.333 3.0446-16.888 7.4731-4.659 4.4023-7.747 9.6418-9.262 15.7186-.758 3.0384-.953 6.2729-.584 9.7035.342 3.5353 1.287 7.1097 2.834 10.723 1.547 3.6132 4.181 6.8855 7.901 9.8167 3.616 2.905 8.056 4.9585 13.321 6.1604l1.842-8.0543c-6.601-1.6463-11.395-5.1793-14.384-10.5989-3.119-5.3409-4.052-10.5259-2.797-15.5549 1.149-4.61 3.439-8.4348 6.868-11.4747 3.298-2.9611 7.344-4.6787 12.136-5.1527 6.599-.5798 11.877.7923 15.834 4.1162l-2.984 3.93 13.789-.4003z" fill="#7c80df"/></svg>